# xmcd
#
# Track frame offsets:
#	150
#	14603
#	32822
#	50001
#	65129
#	82000
#	96796
#	113864
#	125869
#	144015
#	161419
#	162631
#	163874
#	169125
#	170355
#	171577
#	172785
#	173997
#
# Disc length: 2485 seconds
#
# Revision: 3
# Processed by: cddbd v1.5.2PL0 Copyright (c) Steve Scherf et al.
# Submitted via: EasyCDDAExtractor 10.0.2.1
#
DISCID=fe09b312
DTITLE=แทททูคัลเลอร์ - ชุดที่ 8 จงเพราะ
DYEAR=2008
DGENRE=Pop
TTITLE0=โกหก
TTITLE1=โอกาสสุดท้าย
TTITLE2=จำทำไม
TTITLE3=ขาหมู
TTITLE4=ฉันรักเธอ (feat. ฟักกลิ้ง ฮีโร่)
TTITLE5=Cinderella
TTITLE6=นกน้อย
TTITLE7=เปิดเพลงไหน เปิดเมื่อไหร่ ก็ยังสวยงาม
TTITLE8=บ้านของฉัน
TTITLE9=เพลงสุดท้าย
TTITLE10=Bonus Track
TTITLE11=Bonus Track
TTITLE12=Bonus Track
TTITLE13=Bonus Track
TTITLE14=Bonus Track
TTITLE15=Bonus Track
TTITLE16=Bonus Track
TTITLE17=Bonus Track
EXTD=
EXTT0=
EXTT1=
EXTT2=
EXTT3=
EXTT4=
EXTT5=
EXTT6=
EXTT7=
EXTT8=
EXTT9=
EXTT10=
EXTT11=
EXTT12=
EXTT13=
EXTT14=
EXTT15=
EXTT16=
EXTT17=
PLAYORDER=
